<svg width="37" height="36" viewBox="0 0 37 36" fill="none" xmlns="http://www.w3.org/2000/svg">
<path d="M10.56 17.8263C10.56 18.7984 10.7444 19.7204 11.1131 20.592C11.4819 21.4301 11.9848 22.1676 12.6217 22.8045C13.2587 23.4415 13.9962 23.9444 14.8343 24.3131C15.7059 24.6819 16.6278 24.8663 17.6 24.8663C18.5722 24.8663 19.4773 24.6819 20.3154 24.3131C21.187 23.9444 21.9413 23.4415 22.5783 22.8045C23.2152 22.1676 23.7181 21.4301 24.0869 20.592C24.4556 19.7204 24.64 18.7984 24.64 17.8263C24.64 16.8541 24.4556 15.9489 24.0869 15.1108C23.7181 14.2392 23.2152 13.4849 22.5783 12.848C21.9413 12.211 21.187 11.7082 20.3154 11.3394C19.4773 10.9706 18.5722 10.7863 17.6 10.7863C16.6278 10.7863 15.7059 10.9706 14.8343 11.3394C13.9962 11.7082 13.2587 12.211 12.6217 12.848C11.9848 13.4849 11.4819 14.2392 11.1131 15.1108C10.7444 15.9489 10.56 16.8541 10.56 17.8263ZM17.6 29.392C15.9909 29.392 14.4823 29.0903 13.0743 28.4868C11.6998 27.8834 10.4762 27.0621 9.40343 26.0228C8.36419 24.9501 7.54286 23.7264 6.93943 22.352C6.336 20.944 6.03429 19.4354 6.03429 17.8263C6.03429 16.2171 6.336 14.7253 6.93943 13.3508C7.54286 11.9428 8.36419 10.7192 9.40343 9.67997C10.4762 8.60721 11.6998 7.76911 13.0743 7.16569C14.4823 6.56226 15.9909 6.26054 17.6 6.26054C19.2091 6.26054 20.701 6.56226 22.0754 7.16569C23.4834 7.76911 24.7071 8.60721 25.7463 9.67997C26.819 10.7192 27.6571 11.9428 28.2606 13.3508C28.864 14.7253 29.1657 16.2171 29.1657 17.8263C29.1657 19.4354 28.864 20.944 28.2606 22.352C27.6571 23.7264 26.819 24.9501 25.7463 26.0228C24.7071 27.0621 23.4834 27.8834 22.0754 28.4868C20.701 29.0903 19.2091 29.392 17.6 29.392ZM0 17.8263C0 15.4125 0.452571 13.1329 1.35771 10.9874C2.29638 8.84188 3.55352 6.9813 5.12914 5.40568C6.73829 3.79654 8.61562 2.5394 10.7611 1.63426C12.9067 0.695591 15.1863 0.226257 17.6 0.226257C20.0137 0.226257 22.2933 0.695591 24.4389 1.63426C26.5844 2.5394 28.445 3.79654 30.0206 5.40568C31.6297 6.9813 32.8869 8.84188 33.792 10.9874C34.7307 13.1329 35.2 15.4125 35.2 17.8263C35.2 19.2678 35.0324 20.659 34.6971 22C34.3619 23.3409 33.8926 24.5981 33.2891 25.7714H36.4069L31.8811 34.5714H22.9806C21.2038 35.1413 19.4103 35.4263 17.6 35.4263C15.1863 35.4263 12.9067 34.9737 10.7611 34.0685C8.61562 33.1299 6.73829 31.8727 5.12914 30.2971C3.55352 28.688 2.29638 26.8106 1.35771 24.6651C0.452571 22.5196 0 20.24 0 17.8263ZM23.0309 29.4925C24.1371 28.9897 25.1429 28.336 26.048 27.5314C26.9531 26.7268 27.7242 25.8217 28.3611 24.816C29.0316 23.8103 29.5512 22.7207 29.92 21.5474C30.2888 20.3405 30.4731 19.1002 30.4731 17.8263C30.4731 16.0495 30.1379 14.3901 29.4674 12.848C28.797 11.2724 27.8751 9.89788 26.7017 8.72454C25.5284 7.55121 24.1539 6.62931 22.5783 5.95883C21.0362 5.28835 19.3768 4.95311 17.6 4.95311C15.8232 4.95311 14.147 5.28835 12.5714 5.95883C11.0293 6.62931 9.67162 7.55121 8.49829 8.72454C7.32495 9.89788 6.40305 11.2724 5.73257 12.848C5.0621 14.3901 4.72686 16.0495 4.72686 17.8263C4.72686 19.603 5.0621 21.2792 5.73257 22.8548C6.40305 24.3969 7.32495 25.7546 8.49829 26.928C9.67162 28.1013 11.0461 29.0232 12.6217 29.6937C14.2309 30.3642 15.9573 30.6994 17.8011 30.6994H30.624L31.2274 29.4925H23.0309Z" fill="#3545E9"/>
</svg>
